<svg width="24" height="24" viewBox="0 0 24 24" fill="none" xmlns="http://www.w3.org/2000/svg">
<path d="M10 16.2324L6.88381 13.1162L6.70703 12.9394L6.53025 13.1162L5.11625 14.5302L4.93948 14.707L5.11625 14.8837L9.82325 19.5907L10 19.7675L10.1768 19.5907L19.8838 9.88374L20.0606 9.70697L19.8838 9.53019L18.4698 8.11619L18.293 7.93942L18.1163 8.11619L10 16.2324Z" fill="#B4DFD8" stroke="#B4DFD8" stroke-width="0.5"/>
<path d="M9.707 13.9394L6.59078 10.8232L6.414 10.6464L6.23722 10.8232L4.82322 12.2372L4.64645 12.414L4.82322 12.5908L9.53022 17.2978L9.707 17.4746L9.88378 17.2978L19.5908 7.59078L19.7676 7.414L19.5908 7.23722L18.1768 5.82322L18 5.64645L17.8232 5.82322L9.707 13.9394Z" fill="#ACD049" stroke="#ACD049" stroke-width="0.5"/>
</svg>
